<svg xmlns="http://www.w3.org/2000/svg" id="svg2" width="780" height="501" version="1.1"><g id="Page-1" fill="none" fill-rule="evenodd" stroke="none" stroke-width="1"><rect id="Rectangle-1" width="750" height="471" x="15" y="15" stroke="#393939" stroke-width="30" rx="40" style="stroke:#fff;stroke-opacity:1;fill:none"/><g id="g4417" style="fill:#fff;fill-opacity:1" transform="translate(73.504 168.711)scale(.78673)"><g id="g5" style="fill:#fff;fill-opacity:1"><path id="path7" d="M218 0v.1c-.1 0-31.6-.1-40 30-7.7 27.6-29.4 103.8-30 105.9h-6s-22.2-77.9-30-106C103.6-.1 72 0 72 0H0v229h72V93h6l42 136h50l42-135.9h6V229h72V0z" class="st0" style="clip-rule:evenodd;fill:#fff;fill-opacity:1;fill-rule:evenodd"/></g><g id="g9" style="fill:#fff;fill-opacity:1"><path id="path11" d="M481 0s-21.1 1.9-31 24l-51 112h-6V0h-72v229h68s22.1-2 32-24l50-112h6v136h72V0z" class="st0" style="clip-rule:evenodd;fill:#fff;fill-opacity:1;fill-rule:evenodd"/></g><g id="g13" style="fill:#fff;fill-opacity:1"><path id="path15" d="M581 104v125h72v-73h78c34 0 62.8-21.7 73.5-52z" class="st0" style="clip-rule:evenodd;fill:#fff;fill-opacity:1;fill-rule:evenodd"/></g><g id="g17" style="fill:#fff;fill-opacity:1"><linearGradient id="SVGID_1_" x1="570.919" x2="809" y1="47" y2="47" gradientUnits="userSpaceOnUse"><stop id="stop20" offset=".3" style="stop-color:#00b4e6"/><stop id="stop22" offset="1" style="stop-color:#088ccb"/></linearGradient><path id="path24" d="M731 0H570.9c8 43.6 40.7 78.6 83 90 9.6 2.6 19.7 4 30.1 4h123.4c1.1-5.2 1.6-10.5 1.6-16 0-43.1-34.9-78-78-78" style="clip-rule:evenodd;fill:#fff;fill-opacity:1;fill-rule:evenodd"/></g></g></g><style id="style3" type="text/css">.st0{fill-rule:evenodd;clip-rule:evenodd;fill:#4db45e}</style></svg>