<svg xmlns="http://www.w3.org/2000/svg" width="780" height="501"><g fill="none" fill-rule="evenodd"><rect width="750" height="471" x="15" y="15" stroke="#393939" stroke-width="30" rx="40" style="stroke:#fff;stroke-opacity:1;fill:none;fill-opacity:1"/><g style="display:inline"><g style="fill:#fff;fill-opacity:1"><path d="M16.512 6.078c0 .307.2.559.53.559.313 0 .525-.242.525-.56 0-.317-.212-.558-.526-.558-.328 0-.53.252-.53.559m1.414 0v.872h-.38v-.21a.66.66 0 0 1-.55.255c-.49 0-.874-.383-.874-.916 0-.534.384-.917.873-.917.248 0 .431.099.551.256v-.212h.38zm12.824 0c0 .307.201.559.53.559.314 0 .525-.242.525-.56 0-.317-.211-.558-.525-.558-.329 0-.53.252-.53.559m1.414 0V7.65h-.38v-.91a.66.66 0 0 1-.552.255c-.489 0-.873-.383-.873-.916 0-.534.384-.917.873-.917.249 0 .431.099.552.256v-.212h.38zm-9.527.577c.244 0 .401-.154.441-.424h-.905c.04.252.193.424.464.424m.007.34c-.511 0-.87-.373-.87-.917 0-.555.373-.917.896-.917.262 0 .503.066.715.245l-.186.281a.84.84 0 0 0-.508-.183c-.244 0-.467.114-.522.428h1.296q.007.07.008.146c-.004.544-.34.916-.829.916m4.583-.916c0 .307.2.559.529.559.314 0 .526-.242.526-.56 0-.317-.212-.558-.526-.558-.328 0-.53.252-.53.559m1.414 0v.872h-.38v-.21a.66.66 0 0 1-.551.255c-.49 0-.873-.383-.873-.916 0-.534.383-.917.873-.917.248 0 .43.099.551.256v-.212h.38zm-3.557 0c0-.53.369-.917.931-.917.263 0 .438.059.628.208l-.182.307a.77.77 0 0 0-.457-.157c-.303.004-.526.223-.526.559s.223.555.526.559a.77.77 0 0 0 .457-.158l.182.307a.9.9 0 0 1-.628.208c-.562 0-.93-.387-.93-.916m4.892.916a.52.52 0 0 1-.46-.255v.211h-.376V5.205h.38v.979c0 .288.124.449.372.449a.6.6 0 0 0 .238-.044l.117.358a.8.8 0 0 1-.27.047m-10.174-.182c-.183.12-.434.182-.712.182-.442 0-.727-.212-.727-.558 0-.285.212-.46.603-.515l.179-.026c.208-.03.306-.084.306-.183 0-.135-.138-.211-.398-.211a.93.93 0 0 0-.58.182l-.179-.295c.208-.154.471-.227.756-.227.504 0 .796.238.796.57 0 .307-.23.467-.61.522l-.179.026c-.164.022-.296.054-.296.171 0 .128.124.205.332.205.223 0 .439-.084.545-.15zm4.897.182a.51.51 0 0 1-.46-.255v.211h-.376V5.205h.38v.979c0 .288.123.449.372.449a.6.6 0 0 0 .237-.044l.117.358a.8.8 0 0 1-.27.047m-3.24-.044h-.62v.53h-.383v-.53h-.354v-.346h.354v-.797c0-.405.157-.646.606-.646a.9.9 0 0 1 .474.135l-.11.325a.7.7 0 0 0-.335-.098c-.19 0-.252.117-.252.292v.789h.62zm-5.674-1.745v1.096c0 .412-.262.69-.686.693-.223.004-.453-.065-.614-.31a.64.64 0 0 1-.577.31.58.58 0 0 1-.51-.259v.215h-.38V5.205h.383v.968c0 .303.168.464.427.464.252 0 .38-.165.38-.46v-.972h.383v.968c0 .303.176.464.428.464.259 0 .383-.165.383-.46v-.972z" style="fill:#fff;fill-opacity:1;fill-rule:nonzero;stroke:none" transform="matrix(23.57797 0 0 -23.57797 -138.056 567.109)"/></g><g style="fill:none;stroke:#fff;stroke-width:3.38520637;stroke-miterlimit:4;stroke-dasharray:none;stroke-opacity:1"><path d="M0 0c0 5.017 2.349 9.486 6.007 12.366a15.66 15.66 0 0 1-9.72 3.363C-12.399 15.729-19.44 8.687-19.44 0s7.041-15.729 15.727-15.729a15.66 15.66 0 0 1 9.72 3.363A15.7 15.7 0 0 0 0 0" style="fill:none;fill-opacity:1;fill-rule:nonzero;stroke:#fff;stroke-width:3.38520637;stroke-miterlimit:4;stroke-dasharray:none;stroke-opacity:1" transform="matrix(8.86209 0 0 -8.86209 340.43 211.453)"/></g><g style="fill:none;stroke:#fff;stroke-width:3.38520637;stroke-miterlimit:4;stroke-dasharray:none;stroke-opacity:1"><path d="M0 0c0-8.687-7.041-15.729-15.727-15.729a15.67 15.67 0 0 0-9.721 3.363A15.7 15.7 0 0 1-19.44 0a15.7 15.7 0 0 1-6.008 12.366 15.67 15.67 0 0 0 9.721 3.363C-7.041 15.729 0 8.687 0 0" style="fill:none;fill-opacity:1;fill-rule:nonzero;stroke:#fff;stroke-width:3.38520637;stroke-miterlimit:4;stroke-dasharray:none;stroke-opacity:1" transform="matrix(8.86209 0 0 -8.86209 619.186 211.453)"/></g></g></g></svg>