<svg xmlns="http://www.w3.org/2000/svg" width="780" height="501"><defs><clipPath id="a" clipPathUnits="userSpaceOnUse"><path d="M0 792h612V0H0z"/></clipPath></defs><g style="fill:none;fill-rule:evenodd" transform="translate(15 15)"><rect width="750" height="471" rx="40" style="fill:none;stroke:#fff;stroke-width:30;stroke-miterlimit:4;stroke-dasharray:none;stroke-opacity:1;fill-opacity:1"/><g clip-path="url(#a)" style="fill:#fff;fill-opacity:1" transform="matrix(4.02852 0 0 -4.02852 -860.689 1834.327)"><g style="fill:#fff;fill-opacity:1"><path d="m0 0-11.006-51.455h-13.312L-13.311 0zm56.004-33.226 7.008 19.324 4.031-19.324zm14.859-18.229h12.309L72.418 0H61.063c-2.559 0-4.715-1.484-5.67-3.772L35.418-51.455h13.98l2.776 7.684H69.25zM36.111-34.656c.059 13.579-18.771 14.332-18.646 20.399.041 1.844 1.799 3.808 5.644 4.31 1.907.246 7.166.444 13.129-2.303L38.57-1.334C35.367-.176 31.246.94 26.119.94 12.959.94 3.701-6.05 3.627-16.068c-.084-7.408 6.613-11.538 11.648-14.005 5.192-2.522 6.932-4.14 6.907-6.393-.036-3.452-4.141-4.98-7.961-5.038-6.698-.104-10.578 1.81-13.672 3.252l-2.416-11.28c3.115-1.426 8.855-2.667 14.799-2.731 13.99 0 23.138 6.909 23.179 17.607M-19.021 0-40.59-51.455h-14.07L-65.275-10.39c-.643 2.525-1.204 3.453-3.161 4.52-3.201 1.739-8.486 3.365-13.132 4.377L-81.254 0h22.652c2.885 0 5.481-1.92 6.141-5.243l5.607-29.778L-33.006 0z" style="fill:#fff;fill-opacity:1;fill-rule:nonzero;stroke:none" transform="translate(305.112 421.192)"/></g></g></g></svg>